<svg xmlns="http://www.w3.org/2000/svg" viewBox="0 0 800 600" role="img" aria-labelledby="title desc">
  <title id="title">Reading Circle</title>
  <desc id="desc">Illustration of a warm library reading circle.</desc>
  <defs>
    <linearGradient id="g1" x1="0" y1="0" x2="1" y2="1">
      <stop offset="0%" stop-color="#4f46e5"/>
      <stop offset="100%" stop-color="#7c3aed"/>
    </linearGradient>
    <linearGradient id="g2" x1="0" y1="0" x2="1" y2="1">
      <stop offset="0%" stop-color="#f59e0b"/>
      <stop offset="100%" stop-color="#fb7185"/>
    </linearGradient>
  </defs>
  <rect width="800" height="600" rx="40" fill="url(#g1)"/>
  <circle cx="640" cy="120" r="90" fill="#fff7ed" opacity="0.25"/>
  <rect x="110" y="380" width="580" height="120" rx="26" fill="#1e293b" opacity="0.35"/>
  <g transform="translate(170 170)">
    <circle cx="230" cy="160" r="92" fill="#fde68a" opacity="0.95"/>
    <path d="M180 105c20-34 54-53 97-53 48 0 88 25 108 67-17 18-48 32-91 32H214c-15 0-27-19-34-46Z" fill="#fff" opacity="0.92"/>
    <rect x="130" y="170" width="200" height="28" rx="14" fill="#fff" opacity="0.86"/>
    <rect x="148" y="214" width="164" height="18" rx="9" fill="#fff" opacity="0.72"/>
    <circle cx="126" cy="190" r="54" fill="url(#g2)"/>
    <path d="M104 198h44M126 176v44" stroke="#fff" stroke-width="12" stroke-linecap="round"/>
    <circle cx="360" cy="190" r="54" fill="#22c55e"/>
    <path d="M338 190h44" stroke="#fff" stroke-width="12" stroke-linecap="round"/>
  </g>
  <text x="60" y="90" fill="#fff" font-size="42" font-family="Arial, Helvetica, sans-serif" font-weight="700">Monthly Reading Circle</text>
</svg>

